<?xml version="1.0" encoding="UTF-8"?>
<svg id="Capa_1" xmlns="http://www.w3.org/2000/svg" version="1.1" viewBox="0 0 792 246">
  <!-- Generator: Adobe Illustrator 29.0.1, SVG Export Plug-In . SVG Version: 2.1.0 Build 192)  -->
  <defs>
    <style>
      .st0, .st1, .st2, .st3 {
        font-family: FiraSans-BoldItalic, 'Fira Sans';
        font-weight: 700;
      }

      .st4 {
        font-family: FiraSans-MediumItalic, 'Fira Sans';
        font-weight: 500;
      }

      .st5 {
        font-size: 85px;
      }

      .st5, .st6, .st3 {
        fill: #fff;
      }

      .st5, .st1, .st2, .st3 {
        font-style: italic;
      }

      .st7, .st1, .st2 {
        fill: #c02f37;
      }

      .st1 {
        font-size: 119.7px;
        letter-spacing: 0em;
      }

      .st2 {
        font-size: 100.2px;
        letter-spacing: 0em;
      }

      .st3 {
        font-size: 48.8px;
      }
    </style>
  </defs>
  <g id="logo">
    <path id="UPAEP" class="st7" d="M254.1,185c-1.1,1.9-2.4,3.7-3.7,5.3h310.9v-8.8H255.7c-.5,1.1-1.1,2.4-1.6,3.5ZM591.9,205.2c0,4.5-2.1,6.9-6.4,6.9s-6.4-2.4-6.4-6.9v-23.7h-10.4v24c0,10.4,7.2,15.7,16.8,15.7s16.8-5.1,16.8-15.7v-24h-10.4v23.7ZM685.2,205h14.1v-8.3h-14.1v-6.4h16.8v-8.8h-27.5v38.9h28.3v-8.8h-17.6v-6.7ZM724.1,181.5h-15.7v38.9h10.4v-11.2h5.3c9.9,0,15.5-5.9,15.5-13.9s-5.6-13.9-15.5-13.9ZM723.6,200.4h-4.8v-10.1h4.8c3.5,0,5.3,1.9,5.3,5.1s-1.9,5.1-5.3,5.1ZM638.8,195.4c0-8-5.6-13.9-15.5-13.9h-15.7v38.9h10.4v-11.2h5.3c10.1,0,15.5-5.9,15.5-13.9ZM623.1,200.4h-4.8v-10.1h4.8c3.5,0,5.3,1.9,5.3,5.1s-1.9,5.1-5.3,5.1ZM652.4,180.7l-18.9,39.7h10.1l1.9-4.8h13.6l2.1,4.8h10.7l-18.9-39.7c0-.3-.5-.3-.5,0ZM648.7,208.2l3.5-8.3,3.5,8.3h-6.9Z"/>
    <path class="st6" d="M73.6,169.8h24l12.8-91.7h-24l-12.8,91.7ZM165.6,97.2c-9.1,0-17.9,5.6-23.7,14.4v-12h-20l-9.9,70.4h23.2l5.3-37.6c4.8-9.9,9.1-16,13.3-16s4,1.6,3.2,8l-6.4,45.6h23.2l7.2-51.5c1.9-13.6-4.3-21.3-15.5-21.3ZM229.3,97.8c-30.7,0-41.6,26.1-41.6,45.1s8,27.5,23.2,27.5,13.6-3.7,18.1-8.8l-.8,6.1c-1.9,12.5-8.5,14.7-15.7,14.7s-12-1.6-19.2-5.6l-7.5,14.9c7.7,5.1,18.1,8,26.9,8,24,0,34.9-10.7,38.7-36.3l8.3-58.4c-9.3-5.3-20.3-7.7-30.4-7.2ZM230.9,144.2c-3.5,5.1-7.7,8.5-12,8.5s-7.2-2.1-7.2-10.9,4.3-28.3,17.1-28c2.7,0,4.3.5,6.7,1.1l-4.5,29.3ZM305.8,97.2c-30.4,0-41.1,25.9-41.1,45.1s10.1,30.1,31.7,30.1,21.1-4.3,28.8-9.9l-8.3-13.6c-6.4,4.3-11.7,6.4-17.6,6.4s-10.9-2.7-11.5-10.9c21.1-1.9,44.8-8,44.8-27.5,0-11.2-9.3-19.7-26.9-19.7ZM289,130.6c1.6-9.1,5.9-18.4,14.7-18.4s5.9,2.7,5.9,5.6c0,5.1-4,12-20.5,12.8ZM388.7,97.2c-9.1,0-17.9,5.6-23.7,14.4v-12h-20l-9.9,70.4h23.2l5.3-37.6c4.8-9.9,9.1-16,13.3-16s4,1.6,3.2,8l-6.4,45.6h23.2l7.2-51.5c2.1-13.6-4.3-21.3-15.5-21.3ZM410.6,169.8h23.2l9.9-70.4h-23.2l-9.9,70.4ZM437,61.8c-8.3,0-14.9,6.1-14.9,14.4s4.5,11.5,12,11.5,14.9-6.1,14.9-14.4-4.8-11.5-12-11.5ZM489.5,97.2c-30.4,0-41.1,25.9-41.1,45.1s10.1,30.1,31.7,30.1,21.1-4.3,28.8-9.9l-8.3-13.6c-6.4,4.3-11.7,6.4-17.6,6.4s-10.9-2.7-11.5-10.9c21.3-1.9,45.1-8,44.8-27.5,0-11.2-9.3-19.7-26.9-19.7ZM472.7,130.6c1.6-9.1,5.9-18.4,14.7-18.4s5.9,2.7,5.9,5.6c0,5.1-3.7,12-20.5,12.8ZM569,97.2c-7.7,0-14.9,5.3-19.7,14.9v-12.8h-20l-9.9,70.4h23.2l4.3-30.9c3.5-10.1,7.7-18.4,16.3-18.4s4,.3,6.1.8l6.7-22.7c-2.4-.8-4.3-1.1-6.9-1.3ZM572.2,169.8h23.2l9.9-70.4h-23.2l-9.9,70.4ZM616.2,75.6l-7.2-17.3-31.2,18.4,5.1,11.7,33.3-12.8ZM674.8,148.4l6.4-43.5c-9.6-5.3-20.3-7.7-30.1-8-30.1,0-41.1,26.7-41.1,46.9s8,28.3,22.9,28.3,16.3-5.3,21.1-12.3c2.4,7.7,9.3,11.2,17.3,11.7l6.7-14.9c-3.5-1.3-3.7-3.7-3.2-8.3ZM652.4,146.3c-3.5,5.9-7.5,8.8-11.7,8.8s-6.7-1.9-6.7-11.2,4-30.4,16.3-30.4,4.5.5,6.7,1.1l-4.5,31.7ZM725.5,126c-11.2-3.7-13.3-4.8-13.3-7.7s2.4-4.5,8-4.5,11.2,1.9,16.3,5.1l10.1-12.5c-6.7-5.3-15.7-9.1-26.4-9.1-19.7,0-30.7,10.7-30.7,23.5s5.9,16.8,17.6,20.8c11.2,4,13.6,5.1,13.6,8.8s-3.7,5.6-9.3,5.6c-8,0-14.4-3.5-18.9-7.5l-11.5,12c6.1,6.9,17.6,12,30.1,12,23.7,0,32.3-12.8,32.3-25.1s-6.4-17.6-17.9-21.3Z"/>
    <path class="st6" d="M83,181.2c1.9,0,3.4.6,4.9,2l2.6-2.5c-1.9-1.9-4.3-3-7.6-3-5.9,0-8.8,3.8-8.8,7.2s2,5.1,6.3,6.5c3.1,1.1,4.1,2,4.1,3.8s-1.9,4-5,4-4.2-.9-5.7-2.4l-2.7,2.6c1.8,1.9,4.4,3.4,8.3,3.4,7.1,0,9.9-4.3,9.9-8.1s-2.6-5.6-6.2-6.7c-3.3-1.1-4.2-1.9-4.2-3.5s1.8-3.2,4.2-3.2ZM98.8,181.8h6.4l-2.8,20.4h4.6l2.8-20.4h6.2l1-3.7h-17.6l-.5,3.7ZM123.4,202.2h13.9l.5-3.4h-9.3l1-7.1h7.6l.5-3.4h-7.6l1-6.7h8.7l1-3.4h-13.8l-3.4,24ZM166.4,178.2l-6.3,17-1.9-17h-5.6l-5.2,24h4.4l1.9-9.8c.7-3.4,1.3-6.8,1.5-10.2l2.2,17.4h4.3l6.7-17.5c-.5,2.9-.8,6.4-1,9.9l-.8,10.1h4.4l1.5-24h-6.1Z"/>
    <text class="st5" transform="translate(123.4 69.9) scale(.6)"><tspan class="st0" x="0" y="0">Encuentro </tspan><tspan class="st4" x="407.1" y="0">de</tspan></text>
    <text class="st1" transform="translate(17.7 107.2)"><tspan x="0" y="0">5</tspan></text>
    <text class="st2" transform="translate(87.3 70.1) scale(.6)"><tspan x="0" y="0">ยบ</tspan></text>
    <text class="st3" transform="translate(653.3 68.2)"><tspan x="0" y="0">2025</tspan></text>
  </g>
</svg>